<svg xmlns="http://www.w3.org/2000/svg" xmlns:xlink="http://www.w3.org/1999/xlink" version="1.1" x="0px" y="0px" viewBox="0 0 100 125" style="enable-background:new 0 0 100 100;" xml:space="preserve"><path d="M88.3007813,29.6000977l-9.5761719-9.5766602c-0.484375-0.484375-1.1513672-0.6953125-1.8222656-0.5800781  c-0.6650391,0.1132813-1.2353516,0.5439453-1.5273438,1.1523438l-1.2001953,2.5053711  c-0.3808594,0.7954102-0.2177734,1.7485352,0.4052734,2.371582l8.2724609,8.2714844  c0.3984375,0.3994141,0.9316406,0.6098633,1.4726563,0.6098633c0.3046875,0,0.6123047-0.0664063,0.8984375-0.2036133  l2.5048828-1.2011719c0.6083984-0.2915039,1.0390625-0.8623047,1.1523438-1.5268555  C88.9960938,30.7480469,88.7841797,30.0839844,88.3007813,29.6000977z"/><path d="M67.4716797,29.5639648c-2.71875,1.3027344-4.9375,3.5166016-6.2470703,6.2324219l-7.6044922,15.7788086  c-0.1982422,0.4116211-0.0761719,0.8833008,0.2958984,1.1474609c0.3720703,0.2631836,0.8574219,0.2226563,1.1806641-0.0996094  l6.0693359-6.0688477l-0.1367188-0.3125c-0.3652344-0.8398438-0.1738281-2.0078125,0.8994141-2.6162109  c0.59375-0.3383789,1.3632813-0.3339844,1.9570313,0.0112305c0.5742188,0.3334961,0.9521484,0.8891602,1.0351563,1.5249023  c0.0820313,0.6342773-0.1289063,1.2578125-0.5810547,1.7094727c-0.5947266,0.5952148-1.4785156,0.7617188-2.2578125,0.4233398  l-0.3115234-0.1357422l-6.0693359,6.0688477c-0.3232422,0.3232422-0.3632813,0.809082-0.0986328,1.1816406  c0.1796875,0.2524414,0.4541016,0.3896484,0.7412109,0.3896484c0.1357422,0,0.2734375-0.0307617,0.4052734-0.0947266  l15.7783203-7.6044922c2.7167969-1.309082,4.9296875-3.5273438,6.2333984-6.246582l3.0820313-6.4326172l-7.9384766-7.9394531  L67.4716797,29.5639648z"/><path d="M53.2003784,54.7537842c-0.4008789,0.2019043-0.9940796,0.4912109-1.7678223,0.8171997  c-0.7759399,0.3184814-1.723999,0.6966553-2.8406372,1.0187378c-1.1070557,0.3550415-2.3889771,0.6171875-3.7801514,0.8206177  c-1.3925781,0.1256104-2.9168091,0.2410278-4.4503784-0.048584c-0.3876343-0.0443115-0.7752686-0.1063232-1.1498413-0.2352295  c-0.3775024-0.1080322-0.7595825-0.2173462-1.145874-0.3279419c-0.7156982-0.3577881-1.4988403-0.598877-2.1519165-1.1129761  c-0.3308105-0.2432861-0.7084961-0.4169312-1.0081787-0.7125854c-0.3045044-0.2844849-0.6112061-0.5710449-0.9197998-0.859375  c-0.7937622-0.7028809-1.3259277-1.3258667-2.1861572-2.0029907c-0.463501-0.3286743-0.928833-0.6586914-1.3955688-0.989624  c-0.486145-0.2772217-0.9902954-0.5112915-1.4931641-0.7647705c-1.0325928-0.4411621-2.1455078-0.7764893-3.2927246-0.9069214  c-2.2941284-0.2874756-4.6340332,0.1240845-6.6535645,0.9639282c-2.0299072,0.8676147-3.8425293,1.9176025-5.4279785,3.5324707  c-1.4446411,1.4506226-2.6208496,3.0213623-3.5812378,4.6912231c-0.9630737,1.6570435-1.6309204,3.4674072-1.9141846,5.2706909  c-0.1865845,0.8924561-0.1762085,1.7937012-0.168335,2.6513062c0.0200195,0.8547363,0.2216187,1.6656494,0.3403931,2.4285278  c0.2335205,0.7282715,0.4787598,1.4084473,0.7109985,2.0349731c0.2833252,0.5878296,0.5925903,1.0979614,0.8569336,1.5721436  c0.1368408,0.2324829,0.2595215,0.4628906,0.3911133,0.6594238c0.1433716,0.1821899,0.277771,0.3529663,0.402832,0.5119019  c0.2539063,0.3167114,0.4699097,0.5861206,0.6450806,0.8045654c0.3557739,0.4344482,0.5455322,0.6661377,0.5455322,0.6661377  l4.2936401-4.2937012c0,0-0.1293335-0.1393433-0.3719482-0.4005737c-0.1240234-0.1293945-0.2770386-0.2890015-0.4569092-0.4766235  c-0.0918579-0.0932617-0.1906128-0.1934814-0.2959595-0.300415c-0.0892944-0.112793-0.1604004-0.2407837-0.2510376-0.3706055  c-0.1685791-0.2634888-0.3892822-0.5452271-0.5897217-0.8653564c-0.1386719-0.3366089-0.3057861-0.6947632-0.4922485-1.0819702  c-0.0679932-0.4124146-0.2490845-0.8318481-0.2949219-1.3115234c-0.0319824-0.4802856-0.1119995-0.9881592-0.0297852-1.5483398  c0.0726929-1.1060791,0.3929443-2.378479,1.0194092-3.6867676c0.6096191-1.302002,1.4644775-2.6784058,2.517395-3.9189453  c0.8829346-1.1140747,2.3338013-2.1543579,3.7850952-2.9075928c1.4780884-0.7635498,3.1019287-1.1657715,4.7087402-1.102478  c0.8062134,0.0216675,1.6040039,0.1942749,2.3848267,0.4498291c0.3786011,0.1612549,0.7763062,0.3011475,1.1491699,0.4696045  l1.0309448,0.6002197c0.7041016,0.4420166,1.5134277,1.203125,2.1821289,1.6924438  c0.4105225,0.3238525,0.8186035,0.6456909,1.2237549,0.96521c0.399353,0.3232422,0.887207,0.5252686,1.3208008,0.7853394  c0.8612671,0.5497437,1.8438721,0.796936,2.74646,1.1389771c0.4702759,0.1090088,0.9404297,0.192688,1.4003906,0.2850342  c0.4586182,0.1105957,0.9168091,0.1483765,1.3696899,0.1658325c1.8106689,0.1817627,3.4872437-0.0829468,4.9921875-0.3459473  c1.4928589-0.3413086,2.8296509-0.7347412,3.9641113-1.2011719c1.1464844-0.4347534,2.1012573-0.9082031,2.8803101-1.3045654  c0.7759399-0.4038086,1.3676758-0.7542725,1.7684326-0.9987793c0.397522-0.2562866,0.6095581-0.3929443,0.6095581-0.3929443  l-0.5279541-0.8493042C53.8023071,54.4315186,53.5929565,54.5435791,53.2003784,54.7537842z"/><text x="0" y="115" fill="#000000" font-size="5px" font-weight="bold" font-family="'Helvetica Neue', Helvetica, Arial-Unicode, Arial, Sans-serif">Created by Evgeni Moryakov</text><text x="0" y="120" fill="#000000" font-size="5px" font-weight="bold" font-family="'Helvetica Neue', Helvetica, Arial-Unicode, Arial, Sans-serif">from the Noun Project</text></svg>